<?xml version="1.0" encoding="iso-8859-1"?>
<!-- Generator: Adobe Illustrator 19.0.0, SVG Export Plug-In . SVG Version: 6.00 Build 0)  -->
<svg version="1.1" id="Capa_1" xmlns="http://www.w3.org/2000/svg" xmlns:xlink="http://www.w3.org/1999/xlink" x="0px" y="0px"
	 viewBox="0 0 512 512" style="enable-background:new 0 0 512 512;" xml:space="preserve">
<path style="fill:#455A64;" d="M496,96H272c-8.837,0-16,7.163-16,16v128c0,44.8,56.224,80,128,80s128-35.2,128-80V112
	C512,103.163,504.837,96,496,96z"/>
<ellipse style="fill:#ECEFF1;" cx="384" cy="112" rx="128" ry="80"/>
<path style="fill:#455A64;" d="M240,96H16c-8.837,0-16,7.163-16,16v128c0,44.8,56.224,80,128,80s128-35.2,128-80V112
	C256,103.163,248.837,96,240,96z"/>
<ellipse style="fill:#ECEFF1;" cx="128" cy="112" rx="128" ry="80"/>
<path style="fill:#455A64;" d="M368,256H144c-8.837,0-16,7.163-16,16v128c0,44.8,56.224,80,128,80s128-35.2,128-80V272
	C384,263.163,376.837,256,368,256z"/>
<ellipse style="fill:#ECEFF1;" cx="256" cy="272" rx="128" ry="80"/>
<path d="M128,192C56.224,192,0,156.8,0,112s56.224-80,128-80s128,35.2,128,80S199.776,192,128,192z M128,64
	c-56.576,0-96,25.312-96,48s39.424,48,96,48s96-25.312,96-48S184.576,64,128,64z"/>
<path d="M128,320C56.224,320,0,284.8,0,240V112c0-8.837,7.163-16,16-16s16,7.163,16,16v128c0,22.688,39.424,48,96,48
	c5.088,0,10.176-0.288,14.976-0.608c3.936-0.256,7.648-0.864,11.392-1.44c8.694-1.583,17.024,4.182,18.607,12.876
	s-4.182,17.024-12.876,18.607c-0.288,0.052-0.577,0.097-0.867,0.133c-4.576,0.704-9.184,1.408-14.112,1.76
	C139.552,319.68,133.792,320,128,320z"/>
<path d="M240,224.64c-8.837,0-16-7.163-16-16V112c0-8.837,7.163-16,16-16s16,7.163,16,16v96.64
	C256,217.477,248.837,224.64,240,224.64z"/>
<path d="M384,192c-71.776,0-128-35.2-128-80s56.224-80,128-80s128,35.2,128,80S455.776,192,384,192z M384,64
	c-56.576,0-96,25.312-96,48s39.424,48,96,48s96-25.312,96-48S440.576,64,384,64z"/>
<path d="M272,224.64c-8.837,0-16-7.163-16-16V112c0-8.837,7.163-16,16-16s16,7.163,16,16v96.64
	C288,217.477,280.837,224.64,272,224.64z"/>
<path d="M384,320c-5.792,0-11.552-0.32-17.024-0.672s-9.6-1.056-14.208-1.76c-8.694-1.583-14.458-9.913-12.876-18.607
	c1.522-8.358,9.31-14.07,17.74-13.009c3.744,0.576,7.456,1.184,11.488,1.44c4.704,0.32,9.792,0.608,14.88,0.608
	c56.576,0,96-25.312,96-48V112c0.012-8.837,7.186-15.99,16.022-15.978c8.819,0.012,15.966,7.159,15.978,15.978v128
	C512,284.8,455.776,320,384,320z"/>
<path d="M256,352c-71.776,0-128-35.2-128-80s56.224-80,128-80s128,35.2,128,80S327.776,352,256,352z M256,224
	c-56.576,0-96,25.312-96,48s39.424,48,96,48s96-25.312,96-48S312.576,224,256,224z"/>
<path d="M256,480c-71.776,0-128-35.2-128-80c0-8.837,7.163-16,16-16s16,7.163,16,16c0,22.688,39.424,48,96,48s96-25.312,96-48
	c0-8.837,7.163-16,16-16s16,7.163,16,16C384,444.8,327.776,480,256,480z"/>
<path d="M144,416c-8.837,0-16-7.163-16-16V272c0-8.837,7.163-16,16-16s16,7.163,16,16v128C160,408.837,152.837,416,144,416z"/>
<path d="M368,416c-8.837,0-16-7.163-16-16V272c0-8.837,7.163-16,16-16s16,7.163,16,16v128C384,408.837,376.837,416,368,416z"/>
<g>
	<path style="fill:#F44336;" d="M128.64,128c-8.837,0-16-7.163-16-16c-0.002-8.713,6.969-15.826,15.68-16h0.32
		c8.837,0,16,7.163,16,16S137.477,128,128.64,128L128.64,128z"/>
	<path style="fill:#F44336;" d="M384.64,128c-8.837,0-16-7.163-16-16c-0.002-8.713,6.969-15.826,15.68-16h0.32
		c8.837,0,16,7.163,16,16S393.477,128,384.64,128z"/>
	<path style="fill:#F44336;" d="M256.64,288c-8.837,0-16-7.163-16-16s7.163-16,16-16h0.32c8.837,0,16,7.163,16,16s-7.163,16-16,16
		H256.64z"/>
</g>
<g>
</g>
<g>
</g>
<g>
</g>
<g>
</g>
<g>
</g>
<g>
</g>
<g>
</g>
<g>
</g>
<g>
</g>
<g>
</g>
<g>
</g>
<g>
</g>
<g>
</g>
<g>
</g>
<g>
</g>
</svg>
