<?xml version="1.0" standalone="no"?><!-- Generator: Gravit.io --><svg xmlns="http://www.w3.org/2000/svg" xmlns:xlink="http://www.w3.org/1999/xlink" style="isolation:isolate" viewBox="0 0 54 46" width="54" height="46"><defs><clipPath id="_clipPath_yaFW8E8nyz9ddOeaxdkwE7hE3HfWgBRT"><rect width="54" height="46"/></clipPath></defs><g clip-path="url(#_clipPath_yaFW8E8nyz9ddOeaxdkwE7hE3HfWgBRT)"><path d=" M 49.734 21.926 L 49.74 21.973 C 48.853 22.092 48.127 22.769 47.963 23.671 L 44.406 43.238 C 44.225 44.232 43.358 44.955 42.348 44.955 L 11.128 44.955 C 10.118 44.955 9.251 44.232 9.071 43.238 L 5.514 23.671 C 5.35 22.769 4.623 22.092 3.736 21.973 L 3.743 21.926 C 2.206 21.725 1.019 20.41 1.019 18.817 C 1.019 17.085 2.423 15.681 4.156 15.681 L 49.321 15.681 C 51.053 15.681 52.457 17.085 52.457 18.817 C 52.457 20.41 51.27 21.725 49.734 21.926 L 49.734 21.926 Z  M 39.284 37.636 L 39.284 29.272 C 39.284 28.118 38.347 27.181 37.193 27.181 C 36.038 27.181 35.102 28.117 35.102 29.272 L 35.102 37.636 C 35.102 38.791 36.038 39.727 37.193 39.727 C 38.348 39.727 39.284 38.791 39.284 37.636 Z  M 28.829 37.636 L 28.829 29.272 C 28.829 28.118 27.892 27.181 26.738 27.181 C 25.583 27.181 24.647 28.117 24.647 29.272 L 24.647 37.636 C 24.647 38.791 25.583 39.727 26.738 39.727 C 27.894 39.727 28.829 38.791 28.829 37.636 Z  M 18.374 37.636 L 18.374 29.272 C 18.374 28.118 17.438 27.181 16.283 27.181 C 15.128 27.181 14.192 28.117 14.192 29.272 L 14.192 37.636 C 14.192 38.791 15.128 39.727 16.283 39.727 C 17.439 39.727 18.374 38.791 18.374 37.636 Z " fill="rgb(131,194,177)"/><path d=" M 32.748 2.119 L 42.606 15.681 L 37.822 15.681 L 29.093 4.151 C 28.531 3.141 28.895 1.868 29.904 1.308 C 30.916 0.747 32.189 1.111 32.748 2.119 L 32.748 2.119 Z " fill="rgb(66,77,99)"/><path d=" M 23.572 1.308 C 24.582 1.868 24.945 3.141 24.384 4.151 L 15.655 15.681 L 10.871 15.681 L 20.729 2.119 C 21.289 1.111 22.56 0.747 23.572 1.308 Z " fill="rgb(66,77,99)"/><path d=" M 26.764 22.999 C 27.341 22.999 27.81 22.531 27.81 21.954 C 27.81 21.377 27.341 20.908 26.764 20.908 C 26.187 20.908 25.719 21.377 25.719 21.954 C 25.719 22.531 26.187 22.999 26.764 22.999 Z " fill="rgb(0,0,0)"/><path d=" M 49.347 14.635 L 43.164 14.635 L 33.654 1.551 C 32.799 0.087 30.917 -0.434 29.423 0.394 C 27.907 1.235 27.363 3.144 28.205 4.659 C 28.229 4.702 28.255 4.743 28.285 4.783 L 35.745 14.635 L 17.784 14.635 L 25.244 4.783 C 25.273 4.743 25.3 4.702 25.324 4.659 C 26.164 3.147 25.625 1.237 24.105 0.393 C 22.613 -0.433 20.732 0.087 19.876 1.55 L 10.365 14.635 L 4.182 14.635 C 1.876 14.635 0 16.512 0 18.817 C 0 20.636 1.18 22.219 2.843 22.78 C 3.02 22.917 3.241 22.999 3.482 22.999 C 3.531 22.999 3.576 23.002 3.623 23.009 C 4.073 23.069 4.43 23.411 4.512 23.857 L 8.068 43.425 C 8.34 44.917 9.638 46 11.154 46 L 42.374 46 C 43.891 46 45.189 44.917 45.461 43.425 L 49.017 23.858 C 49.099 23.411 49.456 23.069 49.908 23.009 C 49.953 23.002 49.999 22.999 50.046 22.999 C 50.289 22.999 50.512 22.916 50.689 22.777 C 52.353 22.213 53.529 20.633 53.529 18.817 C 53.529 16.512 51.653 14.635 49.347 14.635 L 49.347 14.635 Z  M 30.004 3.589 C 29.765 3.094 29.951 2.492 30.437 2.222 C 30.943 1.942 31.581 2.123 31.859 2.625 C 31.88 2.663 31.903 2.699 31.928 2.733 L 40.579 14.635 L 38.367 14.635 L 30.004 3.589 Z  M 21.601 2.734 C 21.626 2.699 21.648 2.664 21.669 2.627 C 21.949 2.124 22.587 1.943 23.091 2.222 C 23.578 2.492 23.764 3.094 23.525 3.589 L 15.162 14.635 L 12.95 14.635 L 21.601 2.734 Z  M 49.347 20.908 L 30.974 20.908 C 30.477 20.908 30.027 21.241 29.923 21.726 C 29.777 22.411 30.293 22.999 30.949 22.999 L 47.087 22.999 C 47.032 23.155 46.989 23.317 46.959 23.483 L 43.404 43.051 C 43.314 43.548 42.881 43.909 42.376 43.909 L 11.154 43.909 C 10.648 43.909 10.216 43.548 10.125 43.051 L 6.569 23.483 C 6.538 23.317 6.495 23.155 6.44 22.999 L 22.55 22.999 C 23.074 22.999 23.542 22.628 23.617 22.109 C 23.71 21.463 23.211 20.908 22.582 20.908 L 4.182 20.908 C 2.907 20.908 1.913 19.769 2.118 18.481 C 2.28 17.459 3.194 16.726 4.228 16.726 L 49.298 16.726 C 50.395 16.726 51.343 17.551 51.431 18.644 C 51.531 19.885 50.544 20.908 49.347 20.908 Z " fill="rgb(0,0,0)"/><path d=" M 23.602 29.336 L 23.602 37.573 C 23.602 39.223 24.851 40.639 26.496 40.764 C 28.335 40.902 29.875 39.446 29.875 37.636 L 29.875 29.272 C 29.875 27.463 28.345 26.013 26.508 26.144 C 24.907 26.258 23.602 27.731 23.602 29.336 L 23.602 29.336 Z  M 27.784 37.636 C 27.784 38.265 27.227 38.765 26.581 38.67 C 26.063 38.594 25.693 38.126 25.693 37.603 L 25.693 29.305 C 25.693 28.781 26.064 28.313 26.583 28.238 C 27.229 28.145 27.784 28.644 27.784 29.272 L 27.784 37.636 Z " fill="rgb(0,0,0)"/><path d=" M 40.33 37.573 L 40.33 29.336 C 40.33 27.686 39.08 26.269 37.435 26.145 C 35.597 26.006 34.057 27.463 34.057 29.272 L 34.057 37.636 C 34.057 39.446 35.597 40.902 37.435 40.764 C 39.08 40.639 40.33 39.223 40.33 37.573 Z  M 36.148 29.272 C 36.148 28.644 36.705 28.143 37.351 28.238 C 37.869 28.315 38.239 28.783 38.239 29.306 L 38.239 37.602 C 38.239 38.126 37.869 38.594 37.351 38.67 C 36.705 38.765 36.148 38.264 36.148 37.636 L 36.148 29.272 Z " fill="rgb(0,0,0)"/><path d=" M 13.147 29.336 L 13.147 37.573 C 13.147 39.223 14.396 40.639 16.042 40.764 C 17.88 40.902 19.42 39.446 19.42 37.636 L 19.42 29.272 C 19.42 27.463 17.89 26.013 16.053 26.144 C 14.452 26.258 13.147 27.731 13.147 29.336 L 13.147 29.336 Z  M 17.329 37.636 C 17.329 38.264 16.772 38.765 16.126 38.67 C 15.608 38.594 15.238 38.126 15.238 37.603 L 15.238 29.305 C 15.238 28.781 15.61 28.313 16.128 28.238 C 16.774 28.145 17.329 28.644 17.329 29.272 L 17.329 37.636 Z " fill="rgb(0,0,0)"/></g></svg>