<?xml version="1.0" standalone="no"?><!-- Generator: Gravit.io --><svg xmlns="http://www.w3.org/2000/svg" xmlns:xlink="http://www.w3.org/1999/xlink" style="isolation:isolate" viewBox="0 0 40 40" width="40" height="40"><defs><clipPath id="_clipPath_ptz8ytbXHZRlrg8x8pdQPo3m0NDUtMqu"><rect width="40" height="40"/></clipPath></defs><g clip-path="url(#_clipPath_ptz8ytbXHZRlrg8x8pdQPo3m0NDUtMqu)"><g><g><path d=" M 20 0 C 8.972 0 0 8.972 0 20 C 0 31.027 8.972 40 20 40 C 31.027 40 40 31.027 40 20 C 40 8.972 31.029 0 20 0 Z  M 24.974 20.704 L 21.72 20.704 C 21.72 25.903 21.72 32.302 21.72 32.302 L 16.898 32.302 C 16.898 32.302 16.898 25.965 16.898 20.704 L 14.606 20.704 L 14.606 16.605 L 16.898 16.605 L 16.898 13.954 C 16.898 12.055 17.801 9.088 21.764 9.088 L 25.337 9.102 L 25.337 13.081 C 25.337 13.081 23.166 13.081 22.744 13.081 C 22.322 13.081 21.722 13.292 21.722 14.197 L 21.722 16.606 L 25.395 16.606 L 24.974 20.704 Z " fill="rgb(0,0,0)"/></g></g></g></svg>