<?xml version="1.0" standalone="no"?><!-- Generator: Gravit.io --><svg xmlns="http://www.w3.org/2000/svg" xmlns:xlink="http://www.w3.org/1999/xlink" style="isolation:isolate" viewBox="0 0 40 40" width="40" height="40"><defs><clipPath id="_clipPath_8sXFqihgcYhfk32k5nLjYw9ob4w5w59Q"><rect width="40" height="40"/></clipPath></defs><g clip-path="url(#_clipPath_8sXFqihgcYhfk32k5nLjYw9ob4w5w59Q)"><g><g><g><path d=" M 17.321 23.314 C 17.191 23.228 17.058 23.135 16.919 23.04 C 16.513 22.916 16.083 22.852 15.642 22.846 L 15.589 22.846 C 13.564 22.846 11.788 24.072 11.788 25.47 C 11.788 26.993 13.31 28.183 15.252 28.183 C 17.813 28.183 19.111 27.298 19.111 25.558 C 19.111 25.394 19.091 25.223 19.05 25.051 C 18.877 24.376 18.257 23.955 17.321 23.314 Z " fill="rgb(0,0,0)"/><path d=" M 15.886 18.007 C 15.887 18.007 15.887 18.007 15.887 18.007 C 16.372 18.007 16.78 17.816 17.097 17.453 C 17.593 16.888 17.813 15.96 17.682 14.975 C 17.453 13.214 16.194 11.747 14.88 11.709 L 14.827 11.708 C 14.362 11.708 13.947 11.9 13.632 12.261 C 13.143 12.819 12.936 13.703 13.065 14.687 C 13.295 16.446 14.581 17.967 15.867 18.007 L 15.886 18.007 L 15.886 18.007 Z " fill="rgb(0,0,0)"/><path d=" M 20 0 C 8.972 0 0 8.972 0 20 C 0 31.027 8.972 40 20 40 C 31.027 40 40 31.027 40 20 C 40 8.972 31.029 0 20 0 Z  M 17.694 29.739 C 16.939 29.957 16.121 30.068 15.263 30.068 C 14.308 30.068 13.389 29.958 12.533 29.741 C 10.876 29.323 9.651 28.531 9.079 27.509 C 8.833 27.068 8.708 26.597 8.708 26.11 C 8.708 25.608 8.828 25.099 9.065 24.594 C 9.973 22.659 12.366 21.357 15.017 21.357 C 15.044 21.357 15.069 21.357 15.093 21.357 C 14.878 20.978 14.774 20.585 14.774 20.172 C 14.774 19.966 14.801 19.757 14.856 19.543 C 12.075 19.48 9.994 17.444 9.994 14.759 C 9.994 12.863 11.51 11.016 13.677 10.27 C 14.325 10.046 14.987 9.932 15.637 9.932 L 21.584 9.932 C 21.786 9.932 21.966 10.063 22.029 10.255 C 22.091 10.447 22.022 10.658 21.859 10.777 L 20.528 11.739 C 20.449 11.796 20.353 11.826 20.254 11.826 L 19.778 11.826 C 20.392 12.563 20.752 13.615 20.752 14.795 C 20.752 16.098 20.093 17.329 18.894 18.268 C 17.967 18.99 17.931 19.189 17.931 19.6 C 17.942 19.827 18.588 20.566 19.3 21.069 C 20.959 22.242 21.576 23.393 21.576 25.314 C 21.575 27.321 20.052 29.054 17.694 29.739 Z  M 31.125 19.538 C 31.125 19.796 30.914 20.006 30.657 20.006 L 27.278 20.006 L 27.278 23.387 C 27.278 23.645 27.068 23.854 26.812 23.854 L 25.85 23.854 C 25.59 23.854 25.381 23.645 25.381 23.387 L 25.381 20.006 L 22.004 20.006 C 21.746 20.006 21.536 19.798 21.536 19.538 L 21.536 18.577 C 21.536 18.32 21.746 18.108 22.004 18.108 L 25.381 18.108 L 25.381 14.731 C 25.381 14.472 25.59 14.263 25.85 14.263 L 26.812 14.263 C 27.068 14.263 27.278 14.472 27.278 14.731 L 27.278 18.108 L 30.657 18.108 C 30.914 18.108 31.124 18.318 31.124 18.576 L 31.124 19.538 L 31.125 19.538 Z " fill="rgb(0,0,0)"/></g></g></g></g></svg>