<?xml version="1.0" standalone="no"?><!-- Generator: Gravit.io --><svg xmlns="http://www.w3.org/2000/svg" xmlns:xlink="http://www.w3.org/1999/xlink" style="isolation:isolate" viewBox="0 0 40 40" width="40" height="40"><defs><clipPath id="_clipPath_O2cInLP4XohvqPnVwP5Y6acenVOg35EZ"><rect width="40" height="40"/></clipPath></defs><g clip-path="url(#_clipPath_O2cInLP4XohvqPnVwP5Y6acenVOg35EZ)"><g><path d=" M 20 0 C 8.972 0 0 8.972 0 20 C 0 31.027 8.972 40 20 40 C 31.027 40 40 31.027 40 20 C 40 8.972 31.029 0 20 0 Z  M 28.922 15.423 C 28.931 15.621 28.936 15.821 28.936 16.02 C 28.936 22.103 24.307 29.115 15.837 29.115 C 13.238 29.115 10.818 28.356 8.781 27.049 C 9.141 27.092 9.508 27.114 9.879 27.114 C 12.037 27.114 14.021 26.377 15.597 25.143 C 13.583 25.106 11.882 23.775 11.296 21.946 C 11.577 21.999 11.866 22.029 12.161 22.029 C 12.581 22.029 12.989 21.974 13.375 21.868 C 11.269 21.446 9.683 19.586 9.683 17.354 C 9.683 17.335 9.683 17.315 9.683 17.296 C 10.304 17.64 11.013 17.848 11.768 17.872 C 10.533 17.047 9.72 15.638 9.72 14.041 C 9.72 13.197 9.947 12.406 10.343 11.726 C 12.613 14.511 16.006 16.343 19.831 16.537 C 19.752 16.199 19.712 15.849 19.712 15.487 C 19.712 12.945 21.773 10.884 24.315 10.884 C 25.639 10.884 26.834 11.443 27.675 12.337 C 28.725 12.131 29.708 11.749 30.599 11.22 C 30.253 12.295 29.525 13.197 28.572 13.767 C 29.505 13.656 30.394 13.409 31.216 13.043 C 30.603 13.964 29.822 14.776 28.922 15.423 Z " fill="rgb(0,0,0)"/></g></g></svg>